<?plantuml 1.2026.2beta3?><svg xmlns="http://www.w3.org/2000/svg" xmlns:xlink="http://www.w3.org/1999/xlink" contentStyleType="text/css" data-diagram-type="CLASS" height="711px" preserveAspectRatio="none" style="width:719px;height:711px;background:#FFFFFF;" version="1.1" viewBox="0 0 719 711" width="719px" zoomAndPan="magnify"><defs/><g><!--class django_content_type--><g class="entity" data-qualified-name="django_content_type" data-source-line="1" id="ent0002"><rect fill="#F1F1F1" height="96.8906" rx="2.5" ry="2.5" style="stroke:#181818;stroke-width:0.5;" width="178.5557" x="272.66" y="608.05"/><ellipse cx="287.66" cy="624.05" fill="#ADD1B2" rx="11" ry="11" style="stroke:#181818;stroke-width:1;"/><path d="M291.7694,630.05 L284.0506,630.05 L284.0506,617.6594 L291.7694,617.6594 L291.7694,619.8156 L286.5038,619.8156 L286.5038,622.4875 L291.2694,622.4875 L291.2694,624.6438 L286.5038,624.6438 L286.5038,627.8938 L291.7694,627.8938 L291.7694,630.05 Z " fill="#000000"/><text fill="#000000" font-family="sans-serif" font-size="14" lengthAdjust="spacing" textLength="146.5557" x="301.66" y="628.8967">django_content_type</text><line style="stroke:#181818;stroke-width:0.5;" x1="273.66" x2="450.2157" y1="640.05" y2="640.05"/><g data-visibility-modifier="IE_MANDATORY"><ellipse cx="283.66" cy="653.6984" fill="#000000" rx="3" ry="3" style="stroke:#000000;stroke-width:1;"/></g><text fill="#000000" font-family="sans-serif" font-size="14" lengthAdjust="spacing" textLength="72.0645" x="292.66" y="657.0451">id: integer</text><line style="stroke:#181818;stroke-width:1;" x1="273.66" x2="450.2157" y1="664.3469" y2="664.3469"/><g data-visibility-modifier="IE_MANDATORY"><ellipse cx="283.66" cy="677.9953" fill="#000000" rx="3" ry="3" style="stroke:#000000;stroke-width:1;"/></g><text fill="#000000" font-family="sans-serif" font-size="14" lengthAdjust="spacing" textLength="116.5664" x="292.66" y="681.342">app_label: string</text><g data-visibility-modifier="IE_MANDATORY"><ellipse cx="283.66" cy="694.2922" fill="#000000" rx="3" ry="3" style="stroke:#000000;stroke-width:1;"/></g><text fill="#000000" font-family="sans-serif" font-size="14" lengthAdjust="spacing" textLength="92.9482" x="292.66" y="697.6389">model: string</text></g><!--class auth_permission--><g class="entity" data-qualified-name="auth_permission" data-source-line="8" id="ent0003"><rect fill="#F1F1F1" height="113.1875" rx="2.5" ry="2.5" style="stroke:#181818;stroke-width:0.5;" width="235.7539" x="244.06" y="434.86"/><ellipse cx="299.9301" cy="450.86" fill="#ADD1B2" rx="11" ry="11" style="stroke:#181818;stroke-width:1;"/><path d="M304.0395,456.86 L296.3207,456.86 L296.3207,444.4694 L304.0395,444.4694 L304.0395,446.6256 L298.7739,446.6256 L298.7739,449.2975 L303.5395,449.2975 L303.5395,451.4538 L298.7739,451.4538 L298.7739,454.7038 L304.0395,454.7038 L304.0395,456.86 Z " fill="#000000"/><text fill="#000000" font-family="sans-serif" font-size="14" lengthAdjust="spacing" textLength="115.5137" x="320.4301" y="455.7067">auth_permission</text><line style="stroke:#181818;stroke-width:0.5;" x1="245.06" x2="478.8139" y1="466.86" y2="466.86"/><g data-visibility-modifier="IE_MANDATORY"><ellipse cx="255.06" cy="480.5084" fill="#000000" rx="3" ry="3" style="stroke:#000000;stroke-width:1;"/></g><text fill="#000000" font-family="sans-serif" font-size="14" lengthAdjust="spacing" textLength="72.0645" x="264.06" y="483.8551">id: integer</text><line style="stroke:#181818;stroke-width:1;" x1="245.06" x2="478.8139" y1="491.1569" y2="491.1569"/><g data-visibility-modifier="IE_MANDATORY"><ellipse cx="255.06" cy="504.8053" fill="#000000" rx="3" ry="3" style="stroke:#000000;stroke-width:1;"/></g><text fill="#000000" font-family="sans-serif" font-size="14" lengthAdjust="spacing" textLength="89.0586" x="264.06" y="508.152">name: string</text><g data-visibility-modifier="IE_MANDATORY"><ellipse cx="255.06" cy="521.1022" fill="#000000" rx="3" ry="3" style="stroke:#000000;stroke-width:1;"/></g><text fill="#000000" font-family="sans-serif" font-size="14" lengthAdjust="spacing" textLength="209.7539" x="264.06" y="524.4489">content_type_id: integer &#171;FK&#187;</text><g data-visibility-modifier="IE_MANDATORY"><ellipse cx="255.06" cy="537.3991" fill="#000000" rx="3" ry="3" style="stroke:#000000;stroke-width:1;"/></g><text fill="#000000" font-family="sans-serif" font-size="14" lengthAdjust="spacing" textLength="129.8213" x="264.06" y="540.7457">code_name: string</text></g><!--class auth_user--><g class="entity" data-qualified-name="auth_user" data-source-line="16" id="ent0004"><rect fill="#F1F1F1" height="210.9688" rx="2.5" ry="2.5" style="stroke:#181818;stroke-width:0.5;" width="179.6514" x="168.11" y="7"/><ellipse cx="219.0104" cy="23" fill="#ADD1B2" rx="11" ry="11" style="stroke:#181818;stroke-width:1;"/><path d="M223.1198,29 L215.401,29 L215.401,16.6094 L223.1198,16.6094 L223.1198,18.7656 L217.8541,18.7656 L217.8541,21.4375 L222.6198,21.4375 L222.6198,23.5938 L217.8541,23.5938 L217.8541,26.8438 L223.1198,26.8438 L223.1198,29 Z " fill="#000000"/><text fill="#000000" font-family="sans-serif" font-size="14" lengthAdjust="spacing" textLength="69.3506" x="239.5104" y="27.8467">auth_user</text><line style="stroke:#181818;stroke-width:0.5;" x1="169.11" x2="346.7614" y1="39" y2="39"/><g data-visibility-modifier="IE_MANDATORY"><ellipse cx="179.11" cy="52.6484" fill="#000000" rx="3" ry="3" style="stroke:#000000;stroke-width:1;"/></g><text fill="#000000" font-family="sans-serif" font-size="14" lengthAdjust="spacing" textLength="72.0645" x="188.11" y="55.9951">id: integer</text><line style="stroke:#181818;stroke-width:1;" x1="169.11" x2="346.7614" y1="63.2969" y2="63.2969"/><g data-visibility-modifier="IE_MANDATORY"><ellipse cx="179.11" cy="76.9453" fill="#000000" rx="3" ry="3" style="stroke:#000000;stroke-width:1;"/></g><text fill="#000000" font-family="sans-serif" font-size="14" lengthAdjust="spacing" textLength="116.0674" x="188.11" y="80.292">password: string</text><g data-visibility-modifier="IE_MANDATORY"><ellipse cx="179.11" cy="93.2422" fill="#000000" rx="3" ry="3" style="stroke:#000000;stroke-width:1;"/></g><text fill="#000000" font-family="sans-serif" font-size="14" lengthAdjust="spacing" textLength="119.5947" x="188.11" y="96.5889">username: string</text><g data-visibility-modifier="IE_MANDATORY"><ellipse cx="179.11" cy="109.5391" fill="#000000" rx="3" ry="3" style="stroke:#000000;stroke-width:1;"/></g><text fill="#000000" font-family="sans-serif" font-size="14" lengthAdjust="spacing" textLength="138.7217" x="188.11" y="112.8857">last_login: datetime</text><text fill="#000000" font-family="sans-serif" font-size="14" lengthAdjust="spacing" textLength="123.416" x="188.11" y="129.1826">first_name: string</text><text fill="#000000" font-family="sans-serif" font-size="14" lengthAdjust="spacing" textLength="121.3105" x="188.11" y="145.4795">last_name: string</text><text fill="#000000" font-family="sans-serif" font-size="14" lengthAdjust="spacing" textLength="87.9648" x="188.11" y="161.7764">email: string</text><text fill="#000000" font-family="sans-serif" font-size="14" lengthAdjust="spacing" textLength="153.2822" x="188.11" y="178.0732">is_superuser: boolean</text><text fill="#000000" font-family="sans-serif" font-size="14" lengthAdjust="spacing" textLength="125.877" x="188.11" y="194.3701">is_active: boolean</text><g data-visibility-modifier="IE_MANDATORY"><ellipse cx="179.11" cy="207.3203" fill="#000000" rx="3" ry="3" style="stroke:#000000;stroke-width:1;"/></g><text fill="#000000" font-family="sans-serif" font-size="14" lengthAdjust="spacing" textLength="153.6514" x="188.11" y="210.667">date_joined: datetime</text></g><!--class auth_group--><g class="entity" data-qualified-name="auth_group" data-source-line="30" id="ent0005"><rect fill="#F1F1F1" height="80.5938" rx="2.5" ry="2.5" style="stroke:#181818;stroke-width:0.5;" width="115.0586" x="412.41" y="72.19"/><ellipse cx="428.8844" cy="88.19" fill="#ADD1B2" rx="11" ry="11" style="stroke:#181818;stroke-width:1;"/><path d="M432.9937,94.19 L425.275,94.19 L425.275,81.7994 L432.9937,81.7994 L432.9937,83.9556 L427.7281,83.9556 L427.7281,86.6275 L432.4937,86.6275 L432.4937,88.7838 L427.7281,88.7838 L427.7281,92.0338 L432.9937,92.0338 L432.9937,94.19 Z " fill="#000000"/><text fill="#000000" font-family="sans-serif" font-size="14" lengthAdjust="spacing" textLength="79.7822" x="443.212" y="93.0367">auth_group</text><line style="stroke:#181818;stroke-width:0.5;" x1="413.41" x2="526.4686" y1="104.19" y2="104.19"/><g data-visibility-modifier="IE_MANDATORY"><ellipse cx="423.41" cy="117.8384" fill="#000000" rx="3" ry="3" style="stroke:#000000;stroke-width:1;"/></g><text fill="#000000" font-family="sans-serif" font-size="14" lengthAdjust="spacing" textLength="72.0645" x="432.41" y="121.1851">id: integer</text><line style="stroke:#181818;stroke-width:1;" x1="413.41" x2="526.4686" y1="128.4869" y2="128.4869"/><g data-visibility-modifier="IE_MANDATORY"><ellipse cx="423.41" cy="142.1353" fill="#000000" rx="3" ry="3" style="stroke:#000000;stroke-width:1;"/></g><text fill="#000000" font-family="sans-serif" font-size="14" lengthAdjust="spacing" textLength="89.0586" x="432.41" y="145.482">name: string</text></g><!--class auth_user_user_permissions--><g class="entity" data-qualified-name="auth_user_user_permissions" data-source-line="36" id="ent0006"><rect fill="#F1F1F1" height="96.8906" rx="2.5" ry="2.5" style="stroke:#181818;stroke-width:0.5;" width="229.8799" x="7" y="277.97"/><ellipse cx="22" cy="293.97" fill="#ADD1B2" rx="11" ry="11" style="stroke:#181818;stroke-width:1;"/><path d="M26.1094,299.97 L18.3906,299.97 L18.3906,287.5794 L26.1094,287.5794 L26.1094,289.7356 L20.8438,289.7356 L20.8438,292.4075 L25.6094,292.4075 L25.6094,294.5638 L20.8438,294.5638 L20.8438,297.8138 L26.1094,297.8138 L26.1094,299.97 Z " fill="#000000"/><text fill="#000000" font-family="sans-serif" font-size="14" lengthAdjust="spacing" textLength="197.8799" x="36" y="298.8167">auth_user_user_permissions</text><line style="stroke:#181818;stroke-width:0.5;" x1="8" x2="235.8799" y1="309.97" y2="309.97"/><g data-visibility-modifier="IE_MANDATORY"><ellipse cx="18" cy="323.6184" fill="#000000" rx="3" ry="3" style="stroke:#000000;stroke-width:1;"/></g><text fill="#000000" font-family="sans-serif" font-size="14" lengthAdjust="spacing" textLength="72.0645" x="27" y="326.9651">id: integer</text><line style="stroke:#181818;stroke-width:1;" x1="8" x2="235.8799" y1="334.2669" y2="334.2669"/><g data-visibility-modifier="IE_MANDATORY"><ellipse cx="18" cy="347.9153" fill="#000000" rx="3" ry="3" style="stroke:#000000;stroke-width:1;"/></g><text fill="#000000" font-family="sans-serif" font-size="14" lengthAdjust="spacing" textLength="148.415" x="27" y="351.262">user_id: integer &#171;FK&#187;</text><g data-visibility-modifier="IE_MANDATORY"><ellipse cx="18" cy="364.2122" fill="#000000" rx="3" ry="3" style="stroke:#000000;stroke-width:1;"/></g><text fill="#000000" font-family="sans-serif" font-size="14" lengthAdjust="spacing" textLength="194.5781" x="27" y="367.5589">permission_id: integer &#171;FK&#187;</text></g><!--class auth_group_permissions--><g class="entity" data-qualified-name="auth_group_permissions" data-source-line="44" id="ent0007"><rect fill="#F1F1F1" height="96.8906" rx="2.5" ry="2.5" style="stroke:#181818;stroke-width:0.5;" width="220.5781" x="491.65" y="277.97"/><ellipse cx="514.6612" cy="293.97" fill="#ADD1B2" rx="11" ry="11" style="stroke:#181818;stroke-width:1;"/><path d="M518.7706,299.97 L511.0519,299.97 L511.0519,287.5794 L518.7706,287.5794 L518.7706,289.7356 L513.505,289.7356 L513.505,292.4075 L518.2706,292.4075 L518.2706,294.5638 L513.505,294.5638 L513.505,297.8138 L518.7706,297.8138 L518.7706,299.97 Z " fill="#000000"/><text fill="#000000" font-family="sans-serif" font-size="14" lengthAdjust="spacing" textLength="170.7754" x="530.4415" y="298.8167">auth_group_permissions</text><line style="stroke:#181818;stroke-width:0.5;" x1="492.65" x2="711.2281" y1="309.97" y2="309.97"/><g data-visibility-modifier="IE_MANDATORY"><ellipse cx="502.65" cy="323.6184" fill="#000000" rx="3" ry="3" style="stroke:#000000;stroke-width:1;"/></g><text fill="#000000" font-family="sans-serif" font-size="14" lengthAdjust="spacing" textLength="72.0645" x="511.65" y="326.9651">id: integer</text><line style="stroke:#181818;stroke-width:1;" x1="492.65" x2="711.2281" y1="334.2669" y2="334.2669"/><g data-visibility-modifier="IE_MANDATORY"><ellipse cx="502.65" cy="347.9153" fill="#000000" rx="3" ry="3" style="stroke:#000000;stroke-width:1;"/></g><text fill="#000000" font-family="sans-serif" font-size="14" lengthAdjust="spacing" textLength="158.8467" x="511.65" y="351.262">group_id: integer &#171;FK&#187;</text><g data-visibility-modifier="IE_MANDATORY"><ellipse cx="502.65" cy="364.2122" fill="#000000" rx="3" ry="3" style="stroke:#000000;stroke-width:1;"/></g><text fill="#000000" font-family="sans-serif" font-size="14" lengthAdjust="spacing" textLength="194.5781" x="511.65" y="367.5589">permission_id: integer &#171;FK&#187;</text></g><!--class auth_user_groups--><g class="entity" data-qualified-name="auth_user_groups" data-source-line="51" id="ent0008"><rect fill="#F1F1F1" height="96.8906" rx="2.5" ry="2.5" style="stroke:#181818;stroke-width:0.5;" width="184.8467" x="271.52" y="277.97"/><ellipse cx="299.2255" cy="293.97" fill="#ADD1B2" rx="11" ry="11" style="stroke:#181818;stroke-width:1;"/><path d="M303.3348,299.97 L295.6161,299.97 L295.6161,287.5794 L303.3348,287.5794 L303.3348,289.7356 L298.0692,289.7356 L298.0692,292.4075 L302.8348,292.4075 L302.8348,294.5638 L298.0692,294.5638 L298.0692,297.8138 L303.3348,297.8138 L303.3348,299.97 Z " fill="#000000"/><text fill="#000000" font-family="sans-serif" font-size="14" lengthAdjust="spacing" textLength="124.6123" x="316.0489" y="298.8167">auth_user_groups</text><line style="stroke:#181818;stroke-width:0.5;" x1="272.52" x2="455.3667" y1="309.97" y2="309.97"/><g data-visibility-modifier="IE_MANDATORY"><ellipse cx="282.52" cy="323.6184" fill="#000000" rx="3" ry="3" style="stroke:#000000;stroke-width:1;"/></g><text fill="#000000" font-family="sans-serif" font-size="14" lengthAdjust="spacing" textLength="72.0645" x="291.52" y="326.9651">id: integer</text><line style="stroke:#181818;stroke-width:1;" x1="272.52" x2="455.3667" y1="334.2669" y2="334.2669"/><g data-visibility-modifier="IE_MANDATORY"><ellipse cx="282.52" cy="347.9153" fill="#000000" rx="3" ry="3" style="stroke:#000000;stroke-width:1;"/></g><text fill="#000000" font-family="sans-serif" font-size="14" lengthAdjust="spacing" textLength="148.415" x="291.52" y="351.262">user_id: integer &#171;FK&#187;</text><g data-visibility-modifier="IE_MANDATORY"><ellipse cx="282.52" cy="364.2122" fill="#000000" rx="3" ry="3" style="stroke:#000000;stroke-width:1;"/></g><text fill="#000000" font-family="sans-serif" font-size="14" lengthAdjust="spacing" textLength="158.8467" x="291.52" y="367.5589">group_id: integer &#171;FK&#187;</text></g><!--link auth_group to auth_user_groups--><g class="link" data-entity-1="ent0005" data-entity-2="ent0008" data-link-type="crowfoot" data-source-line="58" id="lnk9"><path codeLine="58" d="M446.6723,160.0054 C429.0123,195.3254 414.6833,223.972 395.8433,261.632" fill="none" id="auth_group-auth_user_groups" style="stroke:#181818;stroke-width:1;stroke-dasharray:7,7;"/><line style="stroke:#181818;stroke-width:1;" x1="444.8834" x2="452.0389" y1="154.6389" y2="158.2166"/><line style="stroke:#181818;stroke-width:1;" x1="443.5418" x2="450.6972" y1="157.3221" y2="160.8998"/><line style="stroke:#181818;stroke-width:1;" x1="446.6723" x2="450.25" y1="160.0054" y2="152.85"/><line style="stroke:#181818;stroke-width:1;" x1="391.3692" x2="393.156" y1="270.5753" y2="280.4144"/><line style="stroke:#181818;stroke-width:1;" x1="391.3692" x2="382.424" y1="270.5753" y2="275.0456"/><line style="stroke:#181818;stroke-width:1;" x1="391.3692" x2="387.79" y1="270.5753" y2="277.73"/><ellipse cx="394.0536" cy="265.2093" fill="none" rx="4" ry="4" style="stroke:#181818;stroke-width:1;"/></g><!--link auth_user to auth_user_groups--><g class="link" data-entity-1="ent0004" data-entity-2="ent0008" data-link-type="crowfoot" data-source-line="59" id="lnk10"><path codeLine="59" d="M313.8991,225.3647 C324.2791,246.1147 323.0565,243.6821 331.9065,261.3721" fill="none" id="auth_user-auth_user_groups" style="stroke:#181818;stroke-width:1;stroke-dasharray:7,7;"/><line style="stroke:#181818;stroke-width:1;" x1="308.5322" x2="315.6869" y1="223.5769" y2="219.9978"/><line style="stroke:#181818;stroke-width:1;" x1="309.8743" x2="317.0291" y1="226.2599" y2="222.6808"/><line style="stroke:#181818;stroke-width:1;" x1="313.8991" x2="310.32" y1="225.3647" y2="218.21"/><line style="stroke:#181818;stroke-width:1;" x1="336.3807" x2="345.326" y1="270.3154" y2="274.7855"/><line style="stroke:#181818;stroke-width:1;" x1="336.3807" x2="334.594" y1="270.3154" y2="280.1545"/><line style="stroke:#181818;stroke-width:1;" x1="336.3807" x2="339.96" y1="270.3154" y2="277.47"/><ellipse cx="333.6962" cy="264.9494" fill="none" rx="4" ry="4" style="stroke:#181818;stroke-width:1;"/></g><!--link auth_user to auth_user_user_permissions--><g class="link" data-entity-1="ent0004" data-entity-2="ent0006" data-link-type="crowfoot" data-source-line="60" id="lnk11"><path codeLine="60" d="M186.4184,224.9423 C173.0984,245.6923 173.7802,244.6302 162.4302,262.3202" fill="none" id="auth_user-auth_user_user_permissions" style="stroke:#181818;stroke-width:1;stroke-dasharray:7,7;"/><line style="stroke:#181818;stroke-width:1;" x1="185.213" x2="191.9453" y1="219.4153" y2="223.737"/><line style="stroke:#181818;stroke-width:1;" x1="183.5924" x2="190.3247" y1="221.9399" y2="226.2616"/><line style="stroke:#181818;stroke-width:1;" x1="186.4184" x2="190.74" y1="224.9423" y2="218.21"/><line style="stroke:#181818;stroke-width:1;" x1="157.0301" x2="157.7599" y1="270.7367" y2="280.7101"/><line style="stroke:#181818;stroke-width:1;" x1="157.0301" x2="147.6601" y1="270.7367" y2="274.2299"/><line style="stroke:#181818;stroke-width:1;" x1="157.0301" x2="152.71" y1="270.7367" y2="277.47"/><ellipse cx="160.2702" cy="265.6868" fill="none" rx="4" ry="4" style="stroke:#181818;stroke-width:1;"/></g><!--link auth_group to auth_group_permissions--><g class="link" data-entity-1="ent0005" data-entity-2="ent0007" data-link-type="crowfoot" data-source-line="61" id="lnk12"><path codeLine="61" d="M498.6882,159.6413 C520.6782,194.9613 539.2626,224.7919 562.7226,262.4519" fill="none" id="auth_group-auth_group_permissions" style="stroke:#181818;stroke-width:1;stroke-dasharray:7,7;"/><line style="stroke:#181818;stroke-width:1;" x1="493.1785" x2="499.9698" y1="158.3598" y2="154.1315"/><line style="stroke:#181818;stroke-width:1;" x1="494.764" x2="501.5554" y1="160.9065" y2="156.6783"/><line style="stroke:#181818;stroke-width:1;" x1="498.6882" x2="494.46" y1="159.6413" y2="152.85"/><line style="stroke:#181818;stroke-width:1;" x1="568.0101" x2="577.3327" y1="270.9397" y2="274.5575"/><line style="stroke:#181818;stroke-width:1;" x1="568.0101" x2="567.1473" y1="270.9397" y2="280.9025"/><line style="stroke:#181818;stroke-width:1;" x1="568.0101" x2="572.24" y1="270.9397" y2="277.73"/><ellipse cx="564.8376" cy="265.847" fill="none" rx="4" ry="4" style="stroke:#181818;stroke-width:1;"/></g><!--link auth_group_permissions to auth_permission--><g class="link" data-entity-1="ent0007" data-entity-2="ent0003" data-link-type="crowfoot" data-source-line="62" id="lnk13"><path codeLine="62" d="M524.9336,379.7271 C497.5536,398.3371 487.4901,405.1664 459.0601,424.4764" fill="none" id="auth_group_permissions-auth_permission" style="stroke:#181818;stroke-width:1;stroke-dasharray:7,7;"/><line style="stroke:#181818;stroke-width:1;" x1="525.9933" x2="530.4904" y1="374.1704" y2="380.7867"/><line style="stroke:#181818;stroke-width:1;" x1="523.5121" x2="528.0092" y1="375.8568" y2="382.4731"/><line style="stroke:#181818;stroke-width:1;" x1="524.9336" x2="531.55" y1="379.7271" y2="375.23"/><line style="stroke:#181818;stroke-width:1;" x1="450.7878" x2="447.5412" y1="430.0951" y2="439.5534"/><line style="stroke:#181818;stroke-width:1;" x1="450.7878" x2="440.7988" y1="430.0951" y2="429.6266"/><line style="stroke:#181818;stroke-width:1;" x1="450.7878" x2="444.17" y1="430.0951" y2="434.59"/><ellipse cx="455.7512" cy="426.7239" fill="none" rx="4" ry="4" style="stroke:#181818;stroke-width:1;"/></g><!--link auth_user_user_permissions to auth_permission--><g class="link" data-entity-1="ent0006" data-entity-2="ent0003" data-link-type="crowfoot" data-source-line="63" id="lnk14"><path codeLine="63" d="M207.2168,385.3485 C234.5968,403.9585 244.6622,410.7851 273.0922,430.0951" fill="none" id="auth_user_user_permissions-auth_permission" style="stroke:#181818;stroke-width:1;stroke-dasharray:7,7;"/><line style="stroke:#181818;stroke-width:1;" x1="198.9464" x2="188.9572" y1="379.7271" y2="380.1923"/><line style="stroke:#181818;stroke-width:1;" x1="198.9464" x2="195.7028" y1="379.7271" y2="370.2677"/><line style="stroke:#181818;stroke-width:1;" x1="198.9464" x2="192.33" y1="379.7271" y2="375.23"/><ellipse cx="203.9086" cy="383.0999" fill="none" rx="4" ry="4" style="stroke:#181818;stroke-width:1;"/><line style="stroke:#181818;stroke-width:1;" x1="278.6485" x2="274.1536" y1="429.0336" y2="435.6515"/><line style="stroke:#181818;stroke-width:1;" x1="276.1669" x2="271.6719" y1="427.348" y2="433.9659"/><line style="stroke:#181818;stroke-width:1;" x1="273.0922" x2="279.71" y1="430.0951" y2="434.59"/></g><!--link auth_permission to django_content_type--><g class="link" data-entity-1="ent0003" data-entity-2="ent0002" data-link-type="crowfoot" data-source-line="64" id="lnk15"><path codeLine="64" d="M361.94,566.11 C361.94,585.48 361.94,581.03 361.94,599.7" fill="none" id="auth_permission-django_content_type" style="stroke:#181818;stroke-width:1;stroke-dasharray:7,7;"/><line style="stroke:#181818;stroke-width:1;" x1="361.94" x2="355.94" y1="556.11" y2="548.11"/><line style="stroke:#181818;stroke-width:1;" x1="361.94" x2="367.94" y1="556.11" y2="548.11"/><line style="stroke:#181818;stroke-width:1;" x1="361.94" x2="361.94" y1="556.11" y2="548.11"/><ellipse cx="361.94" cy="562.11" fill="none" rx="4" ry="4" style="stroke:#181818;stroke-width:1;"/><line style="stroke:#181818;stroke-width:1;" x1="365.94" x2="357.94" y1="603.7" y2="603.7"/><line style="stroke:#181818;stroke-width:1;" x1="365.94" x2="357.94" y1="600.7" y2="600.7"/><line style="stroke:#181818;stroke-width:1;" x1="361.94" x2="361.94" y1="599.7" y2="607.7"/></g><?plantuml-src dPHDReCm48NtFeNNaS81K9HbDps4DOcdT2BmMBPf5ONSlGOgsO3JdsoGUBoPR-OPG1CeNAM-W6bOdTa4D465gqLv4pj9kfOKjGQTsE-Z0DQg5axOrj87HwQ9MiSwkxyBWNDJwCExikWwyfxOb1iQw33hbK-WChCy75vUZyV9eL4jgbR4taTxaMN1-qzsEkEDvjK8BVYWMcx8r593m40TYZToKLqu9zz2mGue1K5U-JwkFo9gUM9k4SoemZdG1oPfDs7KXScWpfYhlHh7lVr3Y8Kuvaiw2bzkCxcAeQVIqlD8t4xwEswsFSVRR3Wr-_TU3qU8Y2pqOQWglcre8hrlJpZMP_88k4bJF0WvBqgw-E4jk7DL3KEv8ljmlss5dyGN?></g></svg>