<?plantuml 1.2026.2beta3?><svg xmlns="http://www.w3.org/2000/svg" xmlns:xlink="http://www.w3.org/1999/xlink" contentStyleType="text/css" data-diagram-type="CLASS" height="880px" preserveAspectRatio="none" style="width:1236px;height:880px;background:#FFFFFF;" version="1.1" viewBox="0 0 1236 880" width="1236px" zoomAndPan="magnify"><defs/><g><!--class ItemClass--><g class="entity" data-qualified-name="ItemClass" data-source-line="1" id="ent0002"><rect fill="#F1F1F1" height="96.8906" rx="2.5" ry="2.5" style="stroke:#181818;stroke-width:0.5;" width="118.5791" x="359.96" y="7"/><ellipse cx="383.0051" cy="23" fill="#ADD1B2" rx="11" ry="11" style="stroke:#181818;stroke-width:1;"/><path d="M387.1144,29 L379.3957,29 L379.3957,16.6094 L387.1144,16.6094 L387.1144,18.7656 L381.8488,18.7656 L381.8488,21.4375 L386.6144,21.4375 L386.6144,23.5938 L381.8488,23.5938 L381.8488,26.8438 L387.1144,26.8438 L387.1144,29 Z " fill="#000000"/><text fill="#000000" font-family="sans-serif" font-size="14" lengthAdjust="spacing" textLength="68.7012" x="398.7929" y="27.8467">ItemClass</text><line style="stroke:#181818;stroke-width:0.5;" x1="360.96" x2="477.5391" y1="39" y2="39"/><g data-visibility-modifier="IE_MANDATORY"><ellipse cx="370.96" cy="52.6484" fill="#000000" rx="3" ry="3" style="stroke:#000000;stroke-width:1;"/></g><text fill="#000000" font-family="sans-serif" font-size="14" lengthAdjust="spacing" textLength="72.0645" x="379.96" y="55.9951">id: integer</text><line style="stroke:#181818;stroke-width:1;" x1="360.96" x2="477.5391" y1="63.2969" y2="63.2969"/><g data-visibility-modifier="IE_MANDATORY"><ellipse cx="370.96" cy="76.9453" fill="#000000" rx="3" ry="3" style="stroke:#000000;stroke-width:1;"/></g><text fill="#000000" font-family="sans-serif" font-size="14" lengthAdjust="spacing" textLength="92.5791" x="379.96" y="80.292">level: integer</text><g data-visibility-modifier="IE_MANDATORY"><ellipse cx="370.96" cy="93.2422" fill="#000000" rx="3" ry="3" style="stroke:#000000;stroke-width:1;"/></g><text fill="#000000" font-family="sans-serif" font-size="14" lengthAdjust="spacing" textLength="89.0586" x="379.96" y="96.5889">name: string</text></g><!--class ItemStatus--><g class="entity" data-qualified-name="ItemStatus" data-source-line="8" id="ent0003"><rect fill="#F1F1F1" height="96.8906" rx="2.5" ry="2.5" style="stroke:#181818;stroke-width:0.5;" width="135.8877" x="513.31" y="7"/><ellipse cx="540.6433" cy="23" fill="#ADD1B2" rx="11" ry="11" style="stroke:#181818;stroke-width:1;"/><path d="M544.7526,29 L537.0339,29 L537.0339,16.6094 L544.7526,16.6094 L544.7526,18.7656 L539.487,18.7656 L539.487,21.4375 L544.2526,21.4375 L544.2526,23.5938 L539.487,23.5938 L539.487,26.8438 L544.7526,26.8438 L544.7526,29 Z " fill="#000000"/><text fill="#000000" font-family="sans-serif" font-size="14" lengthAdjust="spacing" textLength="76.4805" x="557.384" y="27.8467">ItemStatus</text><line style="stroke:#181818;stroke-width:0.5;" x1="514.31" x2="648.1977" y1="39" y2="39"/><g data-visibility-modifier="IE_MANDATORY"><ellipse cx="524.31" cy="52.6484" fill="#000000" rx="3" ry="3" style="stroke:#000000;stroke-width:1;"/></g><text fill="#000000" font-family="sans-serif" font-size="14" lengthAdjust="spacing" textLength="72.0645" x="533.31" y="55.9951">id: integer</text><line style="stroke:#181818;stroke-width:1;" x1="514.31" x2="648.1977" y1="63.2969" y2="63.2969"/><g data-visibility-modifier="IE_MANDATORY"><ellipse cx="524.31" cy="76.9453" fill="#000000" rx="3" ry="3" style="stroke:#000000;stroke-width:1;"/></g><text fill="#000000" font-family="sans-serif" font-size="14" lengthAdjust="spacing" textLength="89.0586" x="533.31" y="80.292">name: string</text><g data-visibility-modifier="IE_MANDATORY"><ellipse cx="524.31" cy="93.2422" fill="#000000" rx="3" ry="3" style="stroke:#000000;stroke-width:1;"/></g><text fill="#000000" font-family="sans-serif" font-size="14" lengthAdjust="spacing" textLength="109.8877" x="533.31" y="96.5889">visible: boolean</text></g><!--class Items--><g class="entity" data-qualified-name="Items" data-source-line="15" id="ent0004"><rect fill="#F1F1F1" height="488.0156" rx="2.5" ry="2.5" style="stroke:#181818;stroke-width:0.5;" width="245.4814" x="458.51" y="163.89"/><ellipse cx="557.4192" cy="179.89" fill="#ADD1B2" rx="11" ry="11" style="stroke:#181818;stroke-width:1;"/><path d="M561.5286,185.89 L553.8098,185.89 L553.8098,173.4994 L561.5286,173.4994 L561.5286,175.6556 L556.2629,175.6556 L556.2629,178.3275 L561.0286,178.3275 L561.0286,180.4838 L556.2629,180.4838 L556.2629,183.7338 L561.5286,183.7338 L561.5286,185.89 Z " fill="#000000"/><text fill="#000000" font-family="sans-serif" font-size="14" lengthAdjust="spacing" textLength="39.1631" x="577.9192" y="184.7367">Items</text><line style="stroke:#181818;stroke-width:0.5;" x1="459.51" x2="702.9914" y1="195.89" y2="195.89"/><g data-visibility-modifier="IE_MANDATORY"><ellipse cx="469.51" cy="209.5384" fill="#000000" rx="3" ry="3" style="stroke:#000000;stroke-width:1;"/></g><text fill="#000000" font-family="sans-serif" font-size="14" lengthAdjust="spacing" textLength="44.4063" x="478.51" y="212.8851">itemid</text><line style="stroke:#181818;stroke-width:1;" x1="459.51" x2="702.9914" y1="220.1869" y2="220.1869"/><g data-visibility-modifier="IE_MANDATORY"><ellipse cx="469.51" cy="233.8353" fill="#000000" rx="3" ry="3" style="stroke:#000000;stroke-width:1;"/></g><text fill="#000000" font-family="sans-serif" font-size="14" lengthAdjust="spacing" textLength="141.2031" x="478.51" y="237.182">itemheadline: string</text><g data-visibility-modifier="IE_MANDATORY"><ellipse cx="469.51" cy="250.1322" fill="#000000" rx="3" ry="3" style="stroke:#000000;stroke-width:1;"/></g><text fill="#000000" font-family="sans-serif" font-size="14" lengthAdjust="spacing" textLength="146.5146" x="478.51" y="253.4789">itemdescription: text</text><g data-visibility-modifier="IE_MANDATORY"><ellipse cx="469.51" cy="266.4291" fill="#000000" rx="3" ry="3" style="stroke:#000000;stroke-width:1;"/></g><text fill="#000000" font-family="sans-serif" font-size="14" lengthAdjust="spacing" textLength="127.4834" x="478.51" y="269.7757">fileid integer &#171;FK&#187;</text><text fill="#000000" font-family="sans-serif" font-size="14" lengthAdjust="spacing" textLength="185.1582" x="478.51" y="286.0726">placementid: integer &#171;FK&#187;</text><g data-visibility-modifier="IE_MANDATORY"><ellipse cx="469.51" cy="299.0228" fill="#000000" rx="3" ry="3" style="stroke:#000000;stroke-width:1;"/></g><text fill="#000000" font-family="sans-serif" font-size="14" lengthAdjust="spacing" textLength="177.2627" x="478.51" y="302.3695">itemclassid: integer &#171;FK&#187;</text><g data-visibility-modifier="IE_MANDATORY"><ellipse cx="469.51" cy="315.3197" fill="#000000" rx="3" ry="3" style="stroke:#000000;stroke-width:1;"/></g><text fill="#000000" font-family="sans-serif" font-size="14" lengthAdjust="spacing" textLength="172.751" x="478.51" y="318.6664">itemstatus: integer &#171;FK&#187;</text><text fill="#000000" font-family="sans-serif" font-size="14" lengthAdjust="spacing" textLength="165.5938" x="478.51" y="334.9632">donatorid: integer &#171;FK&#187;</text><text fill="#000000" font-family="sans-serif" font-size="14" lengthAdjust="spacing" textLength="173.9131" x="478.51" y="351.2601">producerid: integer &#171;FK&#187;</text><text fill="#000000" font-family="sans-serif" font-size="14" lengthAdjust="spacing" textLength="219.4814" x="478.51" y="367.557">itemusedwhereid: integer &#171;FK&#187;</text><text fill="#000000" font-family="sans-serif" font-size="14" lengthAdjust="spacing" textLength="108.1309" x="478.51" y="383.8539">itemsize: string</text><text fill="#000000" font-family="sans-serif" font-size="14" lengthAdjust="spacing" textLength="128.1875" x="478.51" y="400.1507">itemweight: string</text><text fill="#000000" font-family="sans-serif" font-size="14" lengthAdjust="spacing" textLength="155.8525" x="478.51" y="416.4476">itemmodeltype: string</text><text fill="#000000" font-family="sans-serif" font-size="14" lengthAdjust="spacing" textLength="136.4453" x="478.51" y="432.7445">itemserialno: string</text><text fill="#000000" font-family="sans-serif" font-size="14" lengthAdjust="spacing" textLength="149.8574" x="478.51" y="449.0414">itemdatingfrom: date</text><text fill="#000000" font-family="sans-serif" font-size="14" lengthAdjust="spacing" textLength="131.0244" x="478.51" y="465.3382">itemdatingto: date</text><text fill="#000000" font-family="sans-serif" font-size="14" lengthAdjust="spacing" textLength="164.3633" x="478.51" y="481.6351">itemacquiretype: enum</text><text fill="#000000" font-family="sans-serif" font-size="14" lengthAdjust="spacing" textLength="132.7197" x="478.51" y="497.932">itemreceived: date</text><text fill="#000000" font-family="sans-serif" font-size="14" lengthAdjust="spacing" textLength="158.5117" x="478.51" y="514.2289">itemreceivedby: string</text><text fill="#000000" font-family="sans-serif" font-size="14" lengthAdjust="spacing" textLength="144.1631" x="478.51" y="530.5257">itemregistered: date</text><text fill="#000000" font-family="sans-serif" font-size="14" lengthAdjust="spacing" textLength="169.9551" x="478.51" y="546.8226">itemregisteredby: string</text><text fill="#000000" font-family="sans-serif" font-size="14" lengthAdjust="spacing" textLength="158.915" x="478.51" y="563.1195">lastmodified: datetime</text><text fill="#000000" font-family="sans-serif" font-size="14" lengthAdjust="spacing" textLength="153.0771" x="478.51" y="579.4164">lastmodifiedby: string</text><text fill="#000000" font-family="sans-serif" font-size="14" lengthAdjust="spacing" textLength="119.5127" x="478.51" y="595.7132">itemusedby: text</text><text fill="#000000" font-family="sans-serif" font-size="14" lengthAdjust="spacing" textLength="145.5439" x="478.51" y="612.0101">itemrestoration: text</text><text fill="#000000" font-family="sans-serif" font-size="14" lengthAdjust="spacing" textLength="143.4316" x="478.51" y="628.307">itemreferences: text</text><text fill="#000000" font-family="sans-serif" font-size="14" lengthAdjust="spacing" textLength="126.417" x="478.51" y="644.6039">itemremarks: text</text></g><!--class Files--><g class="entity" data-qualified-name="Files" data-source-line="45" id="ent0005"><rect fill="#F1F1F1" height="96.8906" rx="2.5" ry="2.5" style="stroke:#181818;stroke-width:0.5;" width="133.6934" x="684.41" y="7"/><ellipse cx="731.1371" cy="23" fill="#ADD1B2" rx="11" ry="11" style="stroke:#181818;stroke-width:1;"/><path d="M735.2464,29 L727.5277,29 L727.5277,16.6094 L735.2464,16.6094 L735.2464,18.7656 L729.9808,18.7656 L729.9808,21.4375 L734.7464,21.4375 L734.7464,23.5938 L729.9808,23.5938 L729.9808,26.8438 L735.2464,26.8438 L735.2464,29 Z " fill="#000000"/><text fill="#000000" font-family="sans-serif" font-size="14" lengthAdjust="spacing" textLength="31.7393" x="751.6371" y="27.8467">Files</text><line style="stroke:#181818;stroke-width:0.5;" x1="685.41" x2="817.1034" y1="39" y2="39"/><g data-visibility-modifier="IE_MANDATORY"><ellipse cx="695.41" cy="52.6484" fill="#000000" rx="3" ry="3" style="stroke:#000000;stroke-width:1;"/></g><text fill="#000000" font-family="sans-serif" font-size="14" lengthAdjust="spacing" textLength="34.0977" x="704.41" y="55.9951">fileid</text><line style="stroke:#181818;stroke-width:1;" x1="685.41" x2="817.1034" y1="63.2969" y2="63.2969"/><g data-visibility-modifier="IE_MANDATORY"><ellipse cx="695.41" cy="76.9453" fill="#000000" rx="3" ry="3" style="stroke:#000000;stroke-width:1;"/></g><text fill="#000000" font-family="sans-serif" font-size="14" lengthAdjust="spacing" textLength="76.7266" x="704.41" y="80.292">title: string</text><g data-visibility-modifier="IE_MANDATORY"><ellipse cx="695.41" cy="93.2422" fill="#000000" rx="3" ry="3" style="stroke:#000000;stroke-width:1;"/></g><text fill="#000000" font-family="sans-serif" font-size="14" lengthAdjust="spacing" textLength="107.6934" x="704.41" y="96.5889">active: boolean</text></g><!--class Activities--><g class="entity" data-qualified-name="Activities" data-source-line="51" id="ent0006"><rect fill="#F1F1F1" height="129.4844" rx="2.5" ry="2.5" style="stroke:#181818;stroke-width:0.5;" width="168.5088" x="7" y="728.2"/><ellipse cx="54.9473" cy="744.2" fill="#ADD1B2" rx="11" ry="11" style="stroke:#181818;stroke-width:1;"/><path d="M59.0566,750.2 L51.3379,750.2 L51.3379,737.8094 L59.0566,737.8094 L59.0566,739.9656 L53.791,739.9656 L53.791,742.6375 L58.5566,742.6375 L58.5566,744.7938 L53.791,744.7938 L53.791,748.0438 L59.0566,748.0438 L59.0566,750.2 Z " fill="#000000"/><text fill="#000000" font-family="sans-serif" font-size="14" lengthAdjust="spacing" textLength="64.1143" x="75.4473" y="749.0467">Activities</text><line style="stroke:#181818;stroke-width:0.5;" x1="8" x2="174.5088" y1="760.2" y2="760.2"/><g data-visibility-modifier="IE_MANDATORY"><ellipse cx="18" cy="773.8484" fill="#000000" rx="3" ry="3" style="stroke:#000000;stroke-width:1;"/></g><text fill="#000000" font-family="sans-serif" font-size="14" lengthAdjust="spacing" textLength="40.1953" x="27" y="777.1951">id: int</text><line style="stroke:#181818;stroke-width:1;" x1="8" x2="174.5088" y1="784.4969" y2="784.4969"/><g data-visibility-modifier="IE_MANDATORY"><ellipse cx="18" cy="798.1453" fill="#000000" rx="3" ry="3" style="stroke:#000000;stroke-width:1;"/></g><text fill="#000000" font-family="sans-serif" font-size="14" lengthAdjust="spacing" textLength="142.5088" x="27" y="801.492">itemid: integer &#171;FK&#187;</text><g data-visibility-modifier="IE_MANDATORY"><ellipse cx="18" cy="814.4422" fill="#000000" rx="3" ry="3" style="stroke:#000000;stroke-width:1;"/></g><text fill="#000000" font-family="sans-serif" font-size="14" lengthAdjust="spacing" textLength="142.1533" x="27" y="817.7889">typeid: integer &#171;FK&#187;</text><g data-visibility-modifier="IE_MANDATORY"><ellipse cx="18" cy="830.7391" fill="#000000" rx="3" ry="3" style="stroke:#000000;stroke-width:1;"/></g><text fill="#000000" font-family="sans-serif" font-size="14" lengthAdjust="spacing" textLength="126" x="27" y="834.0857">created: datetime</text><g data-visibility-modifier="IE_MANDATORY"><ellipse cx="18" cy="847.0359" fill="#000000" rx="3" ry="3" style="stroke:#000000;stroke-width:1;"/></g><text fill="#000000" font-family="sans-serif" font-size="14" lengthAdjust="spacing" textLength="98.7998" x="27" y="850.3826">note: longtext</text></g><!--class ActivityTypes--><g class="entity" data-qualified-name="ActivityTypes" data-source-line="59" id="ent0007"><rect fill="#F1F1F1" height="129.4844" rx="2.5" ry="2.5" style="stroke:#181818;stroke-width:0.5;" width="163.5186" x="9.5" y="343.15"/><ellipse cx="41.2783" cy="359.15" fill="#ADD1B2" rx="11" ry="11" style="stroke:#181818;stroke-width:1;"/><path d="M45.3877,365.15 L37.6689,365.15 L37.6689,352.7594 L45.3877,352.7594 L45.3877,354.9156 L40.1221,354.9156 L40.1221,357.5875 L44.8877,357.5875 L44.8877,359.7438 L40.1221,359.7438 L40.1221,362.9938 L45.3877,362.9938 L45.3877,365.15 Z " fill="#000000"/><text fill="#000000" font-family="sans-serif" font-size="14" lengthAdjust="spacing" textLength="94.2334" x="59.0068" y="363.9967">ActivityTypes</text><line style="stroke:#181818;stroke-width:0.5;" x1="10.5" x2="172.0186" y1="375.15" y2="375.15"/><g data-visibility-modifier="IE_MANDATORY"><ellipse cx="20.5" cy="388.7984" fill="#000000" rx="3" ry="3" style="stroke:#000000;stroke-width:1;"/></g><text fill="#000000" font-family="sans-serif" font-size="14" lengthAdjust="spacing" textLength="72.0645" x="29.5" y="392.1451">id: integer</text><line style="stroke:#181818;stroke-width:1;" x1="10.5" x2="172.0186" y1="399.4469" y2="399.4469"/><g data-visibility-modifier="IE_MANDATORY"><ellipse cx="20.5" cy="413.0953" fill="#000000" rx="3" ry="3" style="stroke:#000000;stroke-width:1;"/></g><text fill="#000000" font-family="sans-serif" font-size="14" lengthAdjust="spacing" textLength="131.1338" x="29.5" y="416.442">name: varchar(50)</text><g data-visibility-modifier="IE_MANDATORY"><ellipse cx="20.5" cy="429.3922" fill="#000000" rx="3" ry="3" style="stroke:#000000;stroke-width:1;"/></g><text fill="#000000" font-family="sans-serif" font-size="14" lengthAdjust="spacing" textLength="137.5186" x="29.5" y="432.7389">systemact: boolean</text><g data-visibility-modifier="IE_MANDATORY"><ellipse cx="20.5" cy="445.6891" fill="#000000" rx="3" ry="3" style="stroke:#000000;stroke-width:1;"/></g><text fill="#000000" font-family="sans-serif" font-size="14" lengthAdjust="spacing" textLength="109.8877" x="29.5" y="449.0357">visible: boolean</text><text fill="#000000" font-family="sans-serif" font-size="14" lengthAdjust="spacing" textLength="119.2939" x="29.5" y="465.3326">placeholder: text</text></g><!--class Sted--><g class="entity" data-qualified-name="Sted" data-source-line="67" id="ent0008"><rect fill="#F1F1F1" height="80.5938" rx="2.5" ry="2.5" style="stroke:#181818;stroke-width:0.5;" width="140.249" x="210.13" y="752.64"/><ellipse cx="260.0665" cy="768.64" fill="#ADD1B2" rx="11" ry="11" style="stroke:#181818;stroke-width:1;"/><path d="M264.1759,774.64 L256.4571,774.64 L256.4571,762.2494 L264.1759,762.2494 L264.1759,764.4056 L258.9103,764.4056 L258.9103,767.0775 L263.6759,767.0775 L263.6759,769.2338 L258.9103,769.2338 L258.9103,772.4838 L264.1759,772.4838 L264.1759,774.64 Z " fill="#000000"/><text fill="#000000" font-family="sans-serif" font-size="14" lengthAdjust="spacing" textLength="31.876" x="280.5665" y="773.4867">Sted</text><line style="stroke:#181818;stroke-width:0.5;" x1="211.13" x2="349.379" y1="784.64" y2="784.64"/><g data-visibility-modifier="IE_MANDATORY"><ellipse cx="221.13" cy="798.2884" fill="#000000" rx="3" ry="3" style="stroke:#000000;stroke-width:1;"/></g><text fill="#000000" font-family="sans-serif" font-size="14" lengthAdjust="spacing" textLength="72.0645" x="230.13" y="801.6351">id: integer</text><line style="stroke:#181818;stroke-width:1;" x1="211.13" x2="349.379" y1="808.9369" y2="808.9369"/><g data-visibility-modifier="IE_MANDATORY"><ellipse cx="221.13" cy="822.5853" fill="#000000" rx="3" ry="3" style="stroke:#000000;stroke-width:1;"/></g><text fill="#000000" font-family="sans-serif" font-size="14" lengthAdjust="spacing" textLength="114.249" x="230.13" y="825.932">stednavn: string</text></g><!--class Donators--><g class="entity" data-qualified-name="Donators" data-source-line="72" id="ent0009"><rect fill="#F1F1F1" height="162.0781" rx="2.5" ry="2.5" style="stroke:#181818;stroke-width:0.5;" width="186.6855" x="384.91" y="711.9"/><ellipse cx="442.0516" cy="727.9" fill="#ADD1B2" rx="11" ry="11" style="stroke:#181818;stroke-width:1;"/><path d="M446.161,733.9 L438.4422,733.9 L438.4422,721.5094 L446.161,721.5094 L446.161,723.6656 L440.8954,723.6656 L440.8954,726.3375 L445.661,726.3375 L445.661,728.4938 L440.8954,728.4938 L440.8954,731.7438 L446.161,731.7438 L446.161,733.9 Z " fill="#000000"/><text fill="#000000" font-family="sans-serif" font-size="14" lengthAdjust="spacing" textLength="63.9023" x="462.5516" y="732.7467">Donators</text><line style="stroke:#181818;stroke-width:0.5;" x1="385.91" x2="570.5955" y1="743.9" y2="743.9"/><g data-visibility-modifier="IE_MANDATORY"><ellipse cx="395.91" cy="757.5484" fill="#000000" rx="3" ry="3" style="stroke:#000000;stroke-width:1;"/></g><text fill="#000000" font-family="sans-serif" font-size="14" lengthAdjust="spacing" textLength="126.7793" x="404.91" y="760.8951">donatorid: integer</text><line style="stroke:#181818;stroke-width:1;" x1="385.91" x2="570.5955" y1="768.1969" y2="768.1969"/><text fill="#000000" font-family="sans-serif" font-size="14" lengthAdjust="spacing" textLength="174.6855" x="390.91" y="785.192">donatorinstitution: string</text><text fill="#000000" font-family="sans-serif" font-size="14" lengthAdjust="spacing" textLength="159.5234" x="390.91" y="801.4889">donatorposition: string</text><text fill="#000000" font-family="sans-serif" font-size="14" lengthAdjust="spacing" textLength="143.7734" x="390.91" y="817.7857">donatorname: string</text><text fill="#000000" font-family="sans-serif" font-size="14" lengthAdjust="spacing" textLength="159.3799" x="390.91" y="834.0826">donatoraddress: string</text><text fill="#000000" font-family="sans-serif" font-size="14" lengthAdjust="spacing" textLength="147.8818" x="390.91" y="850.3795">donatorphone: string</text><text fill="#000000" font-family="sans-serif" font-size="14" lengthAdjust="spacing" textLength="142.6797" x="390.91" y="866.6764">donatoremail: string</text></g><!--class ItemsSubject--><g class="entity" data-qualified-name="ItemsSubject" data-source-line="82" id="ent0010"><rect fill="#F1F1F1" height="96.8906" rx="2.5" ry="2.5" style="stroke:#181818;stroke-width:0.5;" width="194.6221" x="1034.94" y="744.5"/><ellipse cx="1082.2515" cy="760.5" fill="#ADD1B2" rx="11" ry="11" style="stroke:#181818;stroke-width:1;"/><path d="M1086.3609,766.5 L1078.6421,766.5 L1078.6421,754.1094 L1086.3609,754.1094 L1086.3609,756.2656 L1081.0953,756.2656 L1081.0953,758.9375 L1085.8609,758.9375 L1085.8609,761.0938 L1081.0953,761.0938 L1081.0953,764.3438 L1086.3609,764.3438 L1086.3609,766.5 Z " fill="#000000"/><text fill="#000000" font-family="sans-serif" font-size="14" lengthAdjust="spacing" textLength="91.499" x="1102.7515" y="765.3467">ItemsSubject</text><line style="stroke:#181818;stroke-width:0.5;" x1="1035.94" x2="1228.5621" y1="776.5" y2="776.5"/><g data-visibility-modifier="IE_MANDATORY"><ellipse cx="1045.94" cy="790.1484" fill="#000000" rx="3" ry="3" style="stroke:#000000;stroke-width:1;"/></g><text fill="#000000" font-family="sans-serif" font-size="14" lengthAdjust="spacing" textLength="72.0645" x="1054.94" y="793.4951">id: integer</text><line style="stroke:#181818;stroke-width:1;" x1="1035.94" x2="1228.5621" y1="800.7969" y2="800.7969"/><g data-visibility-modifier="IE_MANDATORY"><ellipse cx="1045.94" cy="814.4453" fill="#000000" rx="3" ry="3" style="stroke:#000000;stroke-width:1;"/></g><text fill="#000000" font-family="sans-serif" font-size="14" lengthAdjust="spacing" textLength="156.8027" x="1054.94" y="817.792">items_id: integer &#171;FK&#187;</text><g data-visibility-modifier="IE_MANDATORY"><ellipse cx="1045.94" cy="830.7422" fill="#000000" rx="3" ry="3" style="stroke:#000000;stroke-width:1;"/></g><text fill="#000000" font-family="sans-serif" font-size="14" lengthAdjust="spacing" textLength="168.6221" x="1054.94" y="834.0889">subject_id: integer &#171;FK&#187;</text></g><!--class Subjects--><g class="entity" data-qualified-name="Subjects" data-source-line="88" id="ent0011"><rect fill="#F1F1F1" height="96.8906" rx="2.5" ry="2.5" style="stroke:#181818;stroke-width:0.5;" width="177.6279" x="1043.44" y="359.45"/><ellipse cx="1098.189" cy="375.45" fill="#ADD1B2" rx="11" ry="11" style="stroke:#181818;stroke-width:1;"/><path d="M1102.2984,381.45 L1094.5796,381.45 L1094.5796,369.0594 L1102.2984,369.0594 L1102.2984,371.2156 L1097.0328,371.2156 L1097.0328,373.8875 L1101.7984,373.8875 L1101.7984,376.0438 L1097.0328,376.0438 L1097.0328,379.2938 L1102.2984,379.2938 L1102.2984,381.45 Z " fill="#000000"/><text fill="#000000" font-family="sans-serif" font-size="14" lengthAdjust="spacing" textLength="59.6299" x="1118.689" y="380.2967">Subjects</text><line style="stroke:#181818;stroke-width:0.5;" x1="1044.44" x2="1220.0679" y1="391.45" y2="391.45"/><g data-visibility-modifier="IE_MANDATORY"><ellipse cx="1054.44" cy="405.0984" fill="#000000" rx="3" ry="3" style="stroke:#000000;stroke-width:1;"/></g><text fill="#000000" font-family="sans-serif" font-size="14" lengthAdjust="spacing" textLength="122.8076" x="1063.44" y="408.4451">subjectid: integer</text><line style="stroke:#181818;stroke-width:1;" x1="1044.44" x2="1220.0679" y1="415.7469" y2="415.7469"/><text fill="#000000" font-family="sans-serif" font-size="14" lengthAdjust="spacing" textLength="127.4697" x="1049.44" y="432.742">subjecttitle: string</text><text fill="#000000" font-family="sans-serif" font-size="14" lengthAdjust="spacing" textLength="165.6279" x="1049.44" y="449.0389">subjectdescription: text</text></g><!--class Pictures--><g class="entity" data-qualified-name="Pictures" data-source-line="95" id="ent0012"><rect fill="#F1F1F1" height="96.8906" rx="2.5" ry="2.5" style="stroke:#181818;stroke-width:0.5;" width="154.5088" x="607" y="744.5"/><ellipse cx="651.9771" cy="760.5" fill="#ADD1B2" rx="11" ry="11" style="stroke:#181818;stroke-width:1;"/><path d="M656.0864,766.5 L648.3677,766.5 L648.3677,754.1094 L656.0864,754.1094 L656.0864,756.2656 L650.8208,756.2656 L650.8208,758.9375 L655.5864,758.9375 L655.5864,761.0938 L650.8208,761.0938 L650.8208,764.3438 L656.0864,764.3438 L656.0864,766.5 Z " fill="#000000"/><text fill="#000000" font-family="sans-serif" font-size="14" lengthAdjust="spacing" textLength="56.0547" x="672.4771" y="765.3467">Pictures</text><line style="stroke:#181818;stroke-width:0.5;" x1="608" x2="760.5088" y1="776.5" y2="776.5"/><g data-visibility-modifier="IE_MANDATORY"><ellipse cx="618" cy="790.1484" fill="#000000" rx="3" ry="3" style="stroke:#000000;stroke-width:1;"/></g><text fill="#000000" font-family="sans-serif" font-size="14" lengthAdjust="spacing" textLength="121.2695" x="627" y="793.4951">pictureid: integer</text><line style="stroke:#181818;stroke-width:1;" x1="608" x2="760.5088" y1="800.7969" y2="800.7969"/><text fill="#000000" font-family="sans-serif" font-size="14" lengthAdjust="spacing" textLength="142.5088" x="613" y="817.792">itemid: integer &#171;FK&#187;</text><text fill="#000000" font-family="sans-serif" font-size="14" lengthAdjust="spacing" textLength="114.126" x="613" y="834.0889">picturetext: text</text></g><!--class Producers--><g class="entity" data-qualified-name="Producers" data-source-line="102" id="ent0013"><rect fill="#F1F1F1" height="96.8906" rx="2.5" ry="2.5" style="stroke:#181818;stroke-width:0.5;" width="203.9189" x="796.29" y="744.5"/><ellipse cx="859.0576" cy="760.5" fill="#ADD1B2" rx="11" ry="11" style="stroke:#181818;stroke-width:1;"/><path d="M863.167,766.5 L855.4482,766.5 L855.4482,754.1094 L863.167,754.1094 L863.167,756.2656 L857.9013,756.2656 L857.9013,758.9375 L862.667,758.9375 L862.667,761.0938 L857.9013,761.0938 L857.9013,764.3438 L863.167,764.3438 L863.167,766.5 Z " fill="#000000"/><text fill="#000000" font-family="sans-serif" font-size="14" lengthAdjust="spacing" textLength="69.8838" x="879.5576" y="765.3467">Producers</text><line style="stroke:#181818;stroke-width:0.5;" x1="797.29" x2="999.2089" y1="776.5" y2="776.5"/><g data-visibility-modifier="IE_MANDATORY"><ellipse cx="807.29" cy="790.1484" fill="#000000" rx="3" ry="3" style="stroke:#000000;stroke-width:1;"/></g><text fill="#000000" font-family="sans-serif" font-size="14" lengthAdjust="spacing" textLength="135.0986" x="816.29" y="793.4951">producerid: integer</text><line style="stroke:#181818;stroke-width:1;" x1="797.29" x2="999.2089" y1="800.7969" y2="800.7969"/><g data-visibility-modifier="IE_MANDATORY"><ellipse cx="807.29" cy="814.4453" fill="#000000" rx="3" ry="3" style="stroke:#000000;stroke-width:1;"/></g><text fill="#000000" font-family="sans-serif" font-size="14" lengthAdjust="spacing" textLength="139.7607" x="816.29" y="817.792">producertitle: string</text><g data-visibility-modifier="IE_MANDATORY"><ellipse cx="807.29" cy="830.7422" fill="#000000" rx="3" ry="3" style="stroke:#000000;stroke-width:1;"/></g><text fill="#000000" font-family="sans-serif" font-size="14" lengthAdjust="spacing" textLength="177.9189" x="816.29" y="834.0889">producerdescription: text</text></g><!--link ItemClass to Items--><g class="link" data-entity-1="ent0002" data-entity-2="ent0004" data-link-type="crowfoot" data-source-line="109" id="lnk14"><path codeLine="109" d="M444.6265,111.3318 C452.4565,128.2718 455.1846,134.1577 465.4046,156.2777" fill="none" id="ItemClass-Items" style="stroke:#181818;stroke-width:1;stroke-dasharray:7,7;"/><line style="stroke:#181818;stroke-width:1;" x1="439.3174" x2="446.5792" y1="109.3792" y2="106.0226"/><line style="stroke:#181818;stroke-width:1;" x1="440.5761" x2="447.8379" y1="112.1023" y2="108.7458"/><line style="stroke:#181818;stroke-width:1;" x1="444.6265" x2="441.27" y1="111.3318" y2="104.07"/><line style="stroke:#181818;stroke-width:1;" x1="465.4046" x2="474.2067" y1="156.2777" y2="161.0235"/><line style="stroke:#181818;stroke-width:1;" x1="465.4046" x2="463.3133" y1="156.2777" y2="166.0565"/><line style="stroke:#181818;stroke-width:1;" x1="465.4046" x2="468.76" y1="156.2777" y2="163.54"/><line style="stroke:#181818;stroke-width:1;" x1="468.1969" x2="460.9346" y1="152.7844" y2="156.1398"/></g><!--link Files to Items--><g class="link" data-entity-1="ent0005" data-entity-2="ent0004" data-link-type="crowfoot" data-source-line="110" id="lnk15"><path codeLine="110" d="M724.6575,111.2674 C716.4375,128.2074 717.886,125.2248 707.156,147.3448" fill="none" id="Files-Items" style="stroke:#181818;stroke-width:1;stroke-dasharray:7,7;"/><line style="stroke:#181818;stroke-width:1;" x1="722.8051" x2="730.0025" y1="105.9225" y2="109.4149"/><line style="stroke:#181818;stroke-width:1;" x1="721.4954" x2="728.6928" y1="108.6215" y2="112.114"/><line style="stroke:#181818;stroke-width:1;" x1="724.6575" x2="728.15" y1="111.2674" y2="104.07"/><line style="stroke:#181818;stroke-width:1;" x1="702.7915" x2="704.6984" y1="156.3421" y2="166.1587"/><line style="stroke:#181818;stroke-width:1;" x1="702.7915" x2="693.9016" y1="156.3421" y2="160.9213"/><line style="stroke:#181818;stroke-width:1;" x1="702.7915" x2="699.3" y1="156.3421" y2="163.54"/><ellipse cx="705.4102" cy="150.9438" fill="none" rx="4" ry="4" style="stroke:#181818;stroke-width:1;"/></g><!--link ItemStatus to Items--><g class="link" data-entity-1="ent0003" data-entity-2="ent0004" data-link-type="crowfoot" data-source-line="111" id="lnk16"><path codeLine="111" d="M581.25,112.07 C581.25,129.01 581.25,133.42 581.25,155.54" fill="none" id="ItemStatus-Items" style="stroke:#181818;stroke-width:1;stroke-dasharray:7,7;"/><line style="stroke:#181818;stroke-width:1;" x1="577.25" x2="585.25" y1="108.07" y2="108.07"/><line style="stroke:#181818;stroke-width:1;" x1="577.25" x2="585.25" y1="111.07" y2="111.07"/><line style="stroke:#181818;stroke-width:1;" x1="581.25" x2="581.25" y1="112.07" y2="104.07"/><line style="stroke:#181818;stroke-width:1;" x1="581.25" x2="587.25" y1="155.54" y2="163.54"/><line style="stroke:#181818;stroke-width:1;" x1="581.25" x2="575.25" y1="155.54" y2="163.54"/><line style="stroke:#181818;stroke-width:1;" x1="581.25" x2="581.25" y1="155.54" y2="163.54"/><line style="stroke:#181818;stroke-width:1;" x1="585.25" x2="577.25" y1="153.54" y2="153.54"/></g><!--link Items to Sted--><g class="link" data-entity-1="ent0004" data-entity-2="ent0008" data-link-type="crowfoot" data-source-line="112" id="lnk17"><path codeLine="112" d="M447.0491,579.6737 C393.4391,647.9037 355.4186,696.2862 320.6586,740.5162" fill="none" id="Items-Sted" style="stroke:#181818;stroke-width:1;stroke-dasharray:7,7;"/><line style="stroke:#181818;stroke-width:1;" x1="453.2274" x2="453.4521" y1="571.8105" y2="561.813"/><line style="stroke:#181818;stroke-width:1;" x1="453.2274" x2="462.8879" y1="571.8105" y2="569.227"/><line style="stroke:#181818;stroke-width:1;" x1="453.2274" x2="458.17" y1="571.8105" y2="565.52"/><ellipse cx="449.5204" cy="576.5284" fill="none" rx="4" ry="4" style="stroke:#181818;stroke-width:1;"/><line style="stroke:#181818;stroke-width:1;" x1="318.187" x2="311.39" y1="743.6612" y2="752.31"/><ellipse cx="318.187" cy="743.6612" fill="none" rx="4" ry="4" style="stroke:#181818;stroke-width:1;"/><line style="stroke:#181818;stroke-width:1;" x1="317.0066" x2="310.7166" y1="751.6366" y2="746.6934"/></g><!--link Items to Pictures--><g class="link" data-entity-1="ent0004" data-entity-2="ent0012" data-link-type="crowfoot" data-source-line="113" id="lnk18"><path codeLine="113" d="M651.3747,669.6824 C660.7147,704.4124 662.6441,711.564 669.2941,736.314" fill="none" id="Items-Pictures" style="stroke:#181818;stroke-width:1;stroke-dasharray:7,7;"/><line style="stroke:#181818;stroke-width:1;" x1="648.7776" x2="640.9059" y1="660.0255" y2="653.8582"/><line style="stroke:#181818;stroke-width:1;" x1="648.7776" x2="652.4941" y1="660.0255" y2="650.7418"/><line style="stroke:#181818;stroke-width:1;" x1="648.7776" x2="646.7" y1="660.0255" y2="652.3"/><ellipse cx="650.3359" cy="665.8196" fill="none" rx="4" ry="4" style="stroke:#181818;stroke-width:1;"/><line style="stroke:#181818;stroke-width:1;" x1="674.1951" x2="666.4691" y1="739.1391" y2="741.2149"/><line style="stroke:#181818;stroke-width:1;" x1="673.4166" x2="665.6906" y1="736.2418" y2="738.3177"/><line style="stroke:#181818;stroke-width:1;" x1="669.2941" x2="671.37" y1="736.314" y2="744.04"/></g><!--link Items to ItemsSubject--><g class="link" data-entity-1="ent0004" data-entity-2="ent0010" data-link-type="crowfoot" data-source-line="114" id="lnk19"><path codeLine="114" d="M716.6883,502.9792 C804.0183,563.6592 911.69,638.48 1017.25,711.9 C1032.23,722.32 1033.5275,723.2154 1048.7675,733.8254" fill="none" id="Items-ItemsSubject" style="stroke:#181818;stroke-width:1;stroke-dasharray:7,7;"/><line style="stroke:#181818;stroke-width:1;" x1="713.4034" x2="704.37" y1="500.6967" y2="494.42"/><ellipse cx="713.4034" cy="500.6967" fill="none" rx="4" ry="4" style="stroke:#181818;stroke-width:1;"/><line style="stroke:#181818;stroke-width:1;" x1="705.3724" x2="709.9373" y1="499.9873" y2="493.4176"/><line style="stroke:#181818;stroke-width:1;" x1="1056.9744" x2="1066.9682" y1="739.5391" y2="739.1858"/><line style="stroke:#181818;stroke-width:1;" x1="1056.9744" x2="1060.1118" y1="739.5391" y2="749.0342"/><line style="stroke:#181818;stroke-width:1;" x1="1056.9744" x2="1063.54" y1="739.5391" y2="744.11"/><ellipse cx="1052.0502" cy="736.1109" fill="none" rx="4" ry="4" style="stroke:#181818;stroke-width:1;"/></g><!--link Subjects to ItemsSubject--><g class="link" data-entity-1="ent0011" data-entity-2="ent0010" data-link-type="crowfoot" data-source-line="115" id="lnk20"><path codeLine="115" d="M1132.25,471.63 C1132.25,545.24 1132.25,652.6 1132.25,726.2" fill="none" id="Subjects-ItemsSubject" style="stroke:#181818;stroke-width:1;stroke-dasharray:7,7;"/><line style="stroke:#181818;stroke-width:1;" x1="1132.25" x2="1132.25" y1="467.63" y2="456.63"/><ellipse cx="1132.25" cy="467.63" fill="none" rx="4" ry="4" style="stroke:#181818;stroke-width:1;"/><line style="stroke:#181818;stroke-width:1;" x1="1128.25" x2="1136.25" y1="460.63" y2="460.63"/><line style="stroke:#181818;stroke-width:1;" x1="1132.25" x2="1138.25" y1="736.2" y2="744.2"/><line style="stroke:#181818;stroke-width:1;" x1="1132.25" x2="1126.25" y1="736.2" y2="744.2"/><line style="stroke:#181818;stroke-width:1;" x1="1132.25" x2="1132.25" y1="736.2" y2="744.2"/><ellipse cx="1132.25" cy="730.2" fill="none" rx="4" ry="4" style="stroke:#181818;stroke-width:1;"/></g><!--link Items to Producers--><g class="link" data-entity-1="ent0004" data-entity-2="ent0013" data-link-type="crowfoot" data-source-line="116" id="lnk21"><path codeLine="116" d="M715.7458,571.4074 C770.7358,637.8574 810.7065,686.1541 849.3465,732.8441" fill="none" id="Items-Producers" style="stroke:#181818;stroke-width:1;"/><line style="stroke:#181818;stroke-width:1;" x1="709.3704" x2="699.6475" y1="563.7033" y2="561.3653"/><line style="stroke:#181818;stroke-width:1;" x1="709.3704" x2="708.8925" y1="563.7033" y2="553.7147"/><line style="stroke:#181818;stroke-width:1;" x1="709.3704" x2="704.27" y1="563.7033" y2="557.54"/><ellipse cx="713.1956" cy="568.3258" fill="none" rx="4" ry="4" style="stroke:#181818;stroke-width:1;"/><line style="stroke:#181818;stroke-width:1;" x1="851.8968" x2="858.91" y1="735.9257" y2="744.4"/><ellipse cx="851.8968" cy="735.9257" fill="none" rx="4" ry="4" style="stroke:#181818;stroke-width:1;"/><line style="stroke:#181818;stroke-width:1;" x1="859.4413" x2="853.2782" y1="738.7682" y2="743.8687"/></g><!--link Items to Items--><g class="link" data-entity-1="ent0004" data-entity-2="ent0004" data-link-type="crowfoot" data-source-line="117" id="lnk22"><path codeLine="117" d="M720.8746,353.4189 C741.4246,362.0189 739,375.54 739,407.89 C739,440.25 738.6572,454.9293 718.1072,463.5293" fill="none" id="Items-Items" style="stroke:#181818;stroke-width:1;"/><line style="stroke:#181818;stroke-width:1;" x1="711.6498" x2="701.9537" y1="349.5584" y2="352.0049"/><line style="stroke:#181818;stroke-width:1;" x1="711.6498" x2="706.5863" y1="349.5584" y2="340.9351"/><line style="stroke:#181818;stroke-width:1;" x1="711.6498" x2="704.27" y1="349.5584" y2="346.47"/><ellipse cx="717.1847" cy="351.8747" fill="none" rx="4" ry="4" style="stroke:#181818;stroke-width:1;"/><line style="stroke:#181818;stroke-width:1;" x1="714.4173" x2="704.27" y1="465.0735" y2="469.32"/><ellipse cx="714.4173" cy="465.0735" fill="none" rx="4" ry="4" style="stroke:#181818;stroke-width:1;"/><line style="stroke:#181818;stroke-width:1;" x1="709.5041" x2="706.4157" y1="471.4657" y2="464.0859"/></g><!--link Items to Donators--><g class="link" data-entity-1="ent0004" data-entity-2="ent0009" data-link-type="crowfoot" data-source-line="118" id="lnk23"><path codeLine="118" d="M511.127,669.6828 C505.487,690.6628 508.6559,678.8848 503.7959,696.9548" fill="none" id="Items-Donators" style="stroke:#181818;stroke-width:1;"/><line style="stroke:#181818;stroke-width:1;" x1="513.7231" x2="510.0057" y1="660.0257" y2="650.7423"/><line style="stroke:#181818;stroke-width:1;" x1="513.7231" x2="521.5943" y1="660.0257" y2="653.8577"/><line style="stroke:#181818;stroke-width:1;" x1="513.7231" x2="515.8" y1="660.0257" y2="652.3"/><ellipse cx="512.1655" cy="665.82" fill="none" rx="4" ry="4" style="stroke:#181818;stroke-width:1;"/><line style="stroke:#181818;stroke-width:1;" x1="502.757" x2="499.9" y1="700.8175" y2="711.44"/><ellipse cx="502.757" cy="700.8175" fill="none" rx="4" ry="4" style="stroke:#181818;stroke-width:1;"/><line style="stroke:#181818;stroke-width:1;" x1="504.8016" x2="497.0762" y1="708.6162" y2="706.5384"/></g><!--link Items to Activities--><g class="link" data-entity-1="ent0004" data-entity-2="ent0006" data-link-type="crowfoot" data-source-line="119" id="lnk24"><path codeLine="119" d="M446.5647,513.3627 C369.9147,572.9127 281.11,642.09 192.25,711.9 C185.66,717.09 192.9637,711.3238 186.1037,716.7338" fill="none" id="Items-Activities" style="stroke:#181818;stroke-width:1;stroke-dasharray:7,7;"/><line style="stroke:#181818;stroke-width:1;" x1="449.7235" x2="458.41" y1="510.9086" y2="504.16"/><ellipse cx="449.7235" cy="510.9086" fill="none" rx="4" ry="4" style="stroke:#181818;stroke-width:1;"/><line style="stroke:#181818;stroke-width:1;" x1="452.7972" x2="457.7053" y1="503.4553" y2="509.7728"/><line style="stroke:#181818;stroke-width:1;" x1="178.2516" x2="175.6854" y1="722.9261" y2="732.5912"/><line style="stroke:#181818;stroke-width:1;" x1="178.2516" x2="168.2546" y1="722.9261" y2="723.1688"/><line style="stroke:#181818;stroke-width:1;" x1="178.2516" x2="171.97" y1="722.9261" y2="727.88"/><ellipse cx="182.9629" cy="719.2107" fill="none" rx="4" ry="4" style="stroke:#181818;stroke-width:1;"/></g><!--link ActivityTypes to Activities--><g class="link" data-entity-1="ent0007" data-entity-2="ent0006" data-link-type="crowfoot" data-source-line="120" id="lnk25"><path codeLine="120" d="M91.25,481.01 C91.25,551.82 91.25,649.17 91.25,719.94" fill="none" id="ActivityTypes-Activities" style="stroke:#181818;stroke-width:1;"/><line style="stroke:#181818;stroke-width:1;" x1="87.25" x2="95.25" y1="477.01" y2="477.01"/><line style="stroke:#181818;stroke-width:1;" x1="87.25" x2="95.25" y1="480.01" y2="480.01"/><line style="stroke:#181818;stroke-width:1;" x1="91.25" x2="91.25" y1="481.01" y2="473.01"/><line style="stroke:#181818;stroke-width:1;" x1="91.25" x2="97.25" y1="719.94" y2="727.94"/><line style="stroke:#181818;stroke-width:1;" x1="91.25" x2="85.25" y1="719.94" y2="727.94"/><line style="stroke:#181818;stroke-width:1;" x1="91.25" x2="91.25" y1="719.94" y2="727.94"/><line style="stroke:#181818;stroke-width:1;" x1="95.25" x2="87.25" y1="717.94" y2="717.94"/></g><?plantuml-src VLMnZjim3Dtz5HxR03vqwH8S3YXQ751qAP3kXI8nCQ-ov4fohkav_rxAac8fThh9Z-GZHJxAe1owS_tLGVTPCclhjsfJezZMg1mSmLHDGu244yWPszIATR2jhJEeZjMbgc2csJdcXZiyHTYcFg75lIHahxK4fcwO8WcTK8HuVsw12Oagv_6m0CiDzWwrsjOE_ZZ23oW1HIgXVdny_lRqLFMISUXydhcyP0jSt7VYhjLE5rmOXLRCQRCIrXij1Wvh9iytM12lBHYuOxVuTxwi1ru1Zwqhe4uBaExSbuwMSZAfT04AvkXuCBhRrdI637GwWnZ_FQ21G0fgw2RK00SyWSWS4xG_5taC7D4wkbRfcy3Ccxhjw09umEJhi8C2lk7sBVFGDEV0QwdtB9j-G0-KId6m1TWnyoiXboIuPz9A45nGJH0ScMIkDCOTNJKNR0p_v0te40hbpwfTLPFlxQg16w0kvCsWtT6E4ajDOoeAZvdFFuZilsjtOeQtpBpx-E4zOVPifo6x-J8h2pdjIgkb07FRi1qLk9wEY8LY9vKz437cIzYHKEPoONnuGfMbY24CDD94Kwyjhk75un8n9WH9moueMgqMljGDbCkQfvTeD-nVWBlr-qwhzdDra3R4hHddHWQVq9GOS9CZegKQ8xXy-EPNz3joDvWeYpvyt53V4MTqzdnBrlYUHThbwnRQaWotEvJmrSBd7z4uFZoCRw7zLTXE3-a4PV-QmZNyEIwQNCT9f1aoZjUMH7JKCsKSH7KTo9enaJKDqLyxKS9b8HEKb5-cdL-DgbpZSMoQCRV_0m00?></g></svg>